<svg width="136" height="266" viewBox="0 0 136 266" fill="none" xmlns="http://www.w3.org/2000/svg">
<g clip-path="url(#clip0_1548_8914)">
<path d="M2.79452 136.203C4.33789 136.203 5.58904 134.958 5.58904 133.423C5.58904 131.888 4.33789 130.643 2.79452 130.643C1.25115 130.643 0 131.888 0 133.423C0 134.958 1.25115 136.203 2.79452 136.203Z" fill="#F7A70F"/>
<path d="M2.79452 201.063C4.33789 201.063 5.58904 199.818 5.58904 198.283C5.58904 196.748 4.33789 195.503 2.79452 195.503C1.25115 195.503 0 196.748 0 198.283C0 199.818 1.25115 201.063 2.79452 201.063Z" fill="#F7A70F"/>
<path d="M2.79452 265.923C4.33789 265.923 5.58904 264.678 5.58904 263.143C5.58904 261.608 4.33789 260.363 2.79452 260.363C1.25115 260.363 0 261.608 0 263.143C0 264.678 1.25115 265.923 2.79452 265.923Z" fill="#F7A70F"/>
<path d="M68 136.203C69.5433 136.203 70.7945 134.958 70.7945 133.423C70.7945 131.888 69.5433 130.643 68 130.643C66.4566 130.643 65.2054 131.888 65.2054 133.423C65.2054 134.958 66.4566 136.203 68 136.203Z" fill="#F7A70F"/>
<path d="M68 201.063C69.5433 201.063 70.7945 199.818 70.7945 198.283C70.7945 196.748 69.5433 195.503 68 195.503C66.4566 195.503 65.2054 196.748 65.2054 198.283C65.2054 199.818 66.4566 201.063 68 201.063Z" fill="#F7A70F"/>
<path d="M68 265.923C69.5433 265.923 70.7945 264.678 70.7945 263.143C70.7945 261.608 69.5433 260.363 68 260.363C66.4566 260.363 65.2054 261.608 65.2054 263.143C65.2054 264.678 66.4566 265.923 68 265.923Z" fill="#F7A70F"/>
<path d="M133.206 136.203C134.749 136.203 136 134.958 136 133.423C136 131.888 134.749 130.643 133.206 130.643C131.662 130.643 130.411 131.888 130.411 133.423C130.411 134.958 131.662 136.203 133.206 136.203Z" fill="#F7A70F"/>
<path d="M133.206 201.063C134.749 201.063 136 199.818 136 198.283C136 196.748 134.749 195.503 133.206 195.503C131.662 195.503 130.411 196.748 130.411 198.283C130.411 199.818 131.662 201.063 133.206 201.063Z" fill="#F7A70F"/>
<path d="M133.206 265.923C134.749 265.923 136 264.678 136 263.143C136 261.608 134.749 260.363 133.206 260.363C131.662 260.363 130.411 261.608 130.411 263.143C130.411 264.678 131.662 265.923 133.206 265.923Z" fill="#F7A70F"/>
<path d="M2.79452 6.48229C4.33789 6.48229 5.58904 5.23777 5.58904 3.70257C5.58904 2.16737 4.33789 0.922852 2.79452 0.922852C1.25115 0.922852 0 2.16737 0 3.70257C0 5.23777 1.25115 6.48229 2.79452 6.48229Z" fill="#F7A70F"/>
<path d="M2.79452 71.3424C4.33789 71.3424 5.58904 70.0979 5.58904 68.5627C5.58904 67.0275 4.33789 65.783 2.79452 65.783C1.25115 65.783 0 67.0275 0 68.5627C0 70.0979 1.25115 71.3424 2.79452 71.3424Z" fill="#F7A70F"/>
<path d="M68 6.48229C69.5433 6.48229 70.7945 5.23777 70.7945 3.70257C70.7945 2.16737 69.5433 0.922852 68 0.922852C66.4566 0.922852 65.2054 2.16737 65.2054 3.70257C65.2054 5.23777 66.4566 6.48229 68 6.48229Z" fill="#F7A70F"/>
<path d="M68 71.3424C69.5433 71.3424 70.7945 70.0979 70.7945 68.5627C70.7945 67.0275 69.5433 65.783 68 65.783C66.4566 65.783 65.2054 67.0275 65.2054 68.5627C65.2054 70.0979 66.4566 71.3424 68 71.3424Z" fill="#F7A70F"/>
<path d="M133.206 6.48229C134.749 6.48229 136 5.23777 136 3.70257C136 2.16737 134.749 0.922852 133.206 0.922852C131.662 0.922852 130.411 2.16737 130.411 3.70257C130.411 5.23777 131.662 6.48229 133.206 6.48229Z" fill="#F7A70F"/>
<path d="M133.206 71.3424C134.749 71.3424 136 70.0979 136 68.5627C136 67.0275 134.749 65.783 133.206 65.783C131.662 65.783 130.411 67.0275 130.411 68.5627C130.411 70.0979 131.662 71.3424 133.206 71.3424Z" fill="#F7A70F"/>
</g>
<defs>
<clipPath id="clip0_1548_8914">
<rect width="136" height="265" fill="white" transform="translate(0 0.922852)"/>
</clipPath>
</defs>
</svg>
