<svg width="266" height="137" viewBox="0 0 266 137" fill="none" xmlns="http://www.w3.org/2000/svg">
<g clip-path="url(#clip0_1548_8898)">
<path d="M130.22 3.21737C130.22 4.76074 131.465 6.01189 133 6.01189C134.535 6.01189 135.78 4.76074 135.78 3.21737C135.78 1.674 134.535 0.422852 133 0.422851C131.465 0.422851 130.22 1.674 130.22 3.21737Z" fill="#F7A70F"/>
<path d="M65.3601 3.21737C65.3601 4.76074 66.6047 6.01189 68.1399 6.01189C69.675 6.01189 70.9196 4.76074 70.9196 3.21737C70.9196 1.674 69.675 0.422852 68.1399 0.422851C66.6047 0.422851 65.3601 1.674 65.3601 3.21737Z" fill="#F7A70F"/>
<path d="M0.499977 3.21737C0.499977 4.76074 1.7445 6.01189 3.2797 6.01189C4.81489 6.01189 6.05942 4.76074 6.05942 3.21737C6.05942 1.674 4.81489 0.422852 3.2797 0.422851C1.7445 0.422851 0.499977 1.674 0.499977 3.21737Z" fill="#F7A70F"/>
<path d="M130.22 68.4228C130.22 69.9662 131.465 71.2173 133 71.2173C134.535 71.2173 135.78 69.9662 135.78 68.4228C135.78 66.8794 134.535 65.6283 133 65.6283C131.465 65.6283 130.22 66.8794 130.22 68.4228Z" fill="#F7A70F"/>
<path d="M65.3601 68.4228C65.3601 69.9662 66.6047 71.2173 68.1399 71.2173C69.675 71.2173 70.9196 69.9662 70.9196 68.4228C70.9196 66.8794 69.675 65.6283 68.1399 65.6283C66.6047 65.6283 65.3601 66.8794 65.3601 68.4228Z" fill="#F7A70F"/>
<path d="M0.499977 68.4228C0.499977 69.9662 1.7445 71.2173 3.2797 71.2173C4.81489 71.2173 6.05942 69.9662 6.05942 68.4228C6.05942 66.8794 4.81489 65.6283 3.2797 65.6283C1.7445 65.6283 0.499977 66.8794 0.499977 68.4228Z" fill="#F7A70F"/>
<path d="M130.22 133.628C130.22 135.172 131.465 136.423 133 136.423C134.535 136.423 135.78 135.172 135.78 133.628C135.78 132.085 134.535 130.834 133 130.834C131.465 130.834 130.22 132.085 130.22 133.628Z" fill="#F7A70F"/>
<path d="M65.3601 133.628C65.3601 135.172 66.6046 136.423 68.1398 136.423C69.675 136.423 70.9196 135.172 70.9196 133.628C70.9196 132.085 69.675 130.834 68.1398 130.834C66.6046 130.834 65.3601 132.085 65.3601 133.628Z" fill="#F7A70F"/>
<path d="M0.499977 133.628C0.499977 135.172 1.7445 136.423 3.2797 136.423C4.81489 136.423 6.05942 135.172 6.05942 133.628C6.05942 132.085 4.81489 130.834 3.2797 130.834C1.7445 130.834 0.499977 132.085 0.499977 133.628Z" fill="#F7A70F"/>
<path d="M259.941 3.21737C259.941 4.76074 261.185 6.01189 262.72 6.01189C264.255 6.01189 265.5 4.76074 265.5 3.21737C265.5 1.674 264.255 0.422852 262.72 0.422851C261.185 0.422851 259.941 1.674 259.941 3.21737Z" fill="#F7A70F"/>
<path d="M195.08 3.21737C195.08 4.76074 196.325 6.01189 197.86 6.01189C199.395 6.01189 200.64 4.76074 200.64 3.21737C200.64 1.674 199.395 0.422852 197.86 0.422851C196.325 0.422851 195.08 1.674 195.08 3.21737Z" fill="#F7A70F"/>
<path d="M259.941 68.4228C259.941 69.9662 261.185 71.2173 262.72 71.2173C264.255 71.2173 265.5 69.9662 265.5 68.4228C265.5 66.8794 264.255 65.6283 262.72 65.6283C261.185 65.6283 259.941 66.8794 259.941 68.4228Z" fill="#F7A70F"/>
<path d="M195.08 68.4228C195.08 69.9662 196.325 71.2173 197.86 71.2173C199.395 71.2173 200.64 69.9662 200.64 68.4228C200.64 66.8794 199.395 65.6283 197.86 65.6283C196.325 65.6283 195.08 66.8794 195.08 68.4228Z" fill="#F7A70F"/>
<path d="M259.941 133.628C259.941 135.172 261.185 136.423 262.72 136.423C264.255 136.423 265.5 135.172 265.5 133.628C265.5 132.085 264.255 130.834 262.72 130.834C261.185 130.834 259.941 132.085 259.941 133.628Z" fill="#F7A70F"/>
<path d="M195.08 133.628C195.08 135.172 196.325 136.423 197.86 136.423C199.395 136.423 200.64 135.172 200.64 133.628C200.64 132.085 199.395 130.834 197.86 130.834C196.325 130.834 195.08 132.085 195.08 133.628Z" fill="#F7A70F"/>
</g>
<defs>
<clipPath id="clip0_1548_8898">
<rect width="136" height="265" fill="white" transform="translate(265.5 0.422852) rotate(90)"/>
</clipPath>
</defs>
</svg>
