<svg width="160" height="65" viewBox="0 0 160 65" fill="none" xmlns="http://www.w3.org/2000/svg">
<g clip-path="url(#clip0_1548_9000)">
<path d="M46.4916 28.3877C42.1767 27.2852 41.1098 26.7518 41.1098 25.1041V25.033C41.1098 23.8239 42.2123 22.8637 44.3223 22.8637C46.4323 22.8637 48.6016 23.7883 50.8064 25.3293L53.6633 21.1923C51.1265 19.1652 48.0326 18.0154 44.3934 18.0154C39.2962 18.0154 35.657 21.0145 35.657 25.5427V25.6138C35.657 30.5688 38.905 31.9557 43.9311 33.2478C48.1037 34.3147 48.9572 35.0259 48.9572 36.4247V36.4958C48.9572 37.9539 47.6059 38.8548 45.3536 38.8548C42.4968 38.8548 40.1022 37.7405 37.8974 35.8202C37.8618 35.7846 37.8263 35.7609 37.7907 35.7253C37.7433 35.6898 37.4469 35.4171 37.198 35.18C37.198 35.1682 37.1861 35.1563 37.1861 35.1563C37.0558 35.0378 36.9609 34.9193 36.9254 34.86C36.4631 36.6262 35.6807 38.2502 34.6612 39.6964C34.8628 39.8742 35.0761 40.0521 35.2895 40.218L35.3132 40.2417C38.1937 42.5414 41.7381 43.6794 45.2469 43.6794C50.6286 43.6794 54.4101 40.8937 54.4101 35.9387V35.8676C54.4101 31.5171 51.5533 29.7035 46.4916 28.3758V28.3877Z" fill="#1D1D1B"/>
<path d="M40.8372 47.6742L27.3828 36.7567C25.9959 37.9895 24.1704 38.7481 22.1789 38.7481C17.8522 38.7481 14.3315 35.2393 14.3315 30.9008C14.3315 26.5622 17.8403 23.0534 22.1789 23.0534C26.5175 23.0534 30.0263 26.5622 30.0263 30.9008C30.0263 32.3707 29.6114 33.7576 28.9002 34.9311L32.8239 38.1791C34.2463 36.1047 35.088 33.6035 35.088 30.9008C35.088 23.7765 29.3151 17.9917 22.1789 17.9917C15.0428 17.9917 9.26986 23.7646 9.26986 30.9008C9.26986 38.0369 15.0428 43.8098 22.1789 43.8098C24.3126 43.8098 26.3278 43.2882 28.1059 42.3636L40.446 48.2195L40.849 47.6742H40.8372Z" fill="#1D1D1B"/>
<g clip-path="url(#clip1_1548_9000)">
<path d="M64 0.139404H0V64.1394H64V0.139404Z" fill="#F7A70F"/>
<path d="M46.4916 28.3877C42.1767 27.2852 41.1098 26.7518 41.1098 25.1041V25.033C41.1098 23.8239 42.2123 22.8637 44.3223 22.8637C46.4323 22.8637 48.6016 23.7883 50.8065 25.3293L53.6633 21.1923C51.1265 19.1652 48.0326 18.0154 44.3934 18.0154C39.2962 18.0154 35.657 21.0145 35.657 25.5427V25.6138C35.657 30.5688 38.905 31.9557 43.9311 33.2478C48.1037 34.3147 48.9572 35.0259 48.9572 36.4247V36.4958C48.9572 37.9539 47.6059 38.8548 45.3536 38.8548C42.4968 38.8548 40.1022 37.7405 37.8974 35.8202C37.8618 35.7846 37.8263 35.7609 37.7907 35.7253C37.7433 35.6898 37.4469 35.4171 37.198 35.18C37.198 35.1682 37.1861 35.1563 37.1861 35.1563C37.0558 35.0378 36.9609 34.9193 36.9254 34.86C36.4631 36.6262 35.6807 38.2502 34.6612 39.6964C34.8628 39.8742 35.0761 40.0521 35.2895 40.218L35.3132 40.2417C38.1937 42.5414 41.7381 43.6794 45.2469 43.6794C50.6286 43.6794 54.4101 40.8937 54.4101 35.9387V35.8676C54.4101 31.5171 51.5533 29.7035 46.4916 28.3758V28.3877Z" fill="white"/>
<path d="M40.8372 47.6742L27.3828 36.7567C25.9959 37.9895 24.1704 38.7481 22.1789 38.7481C17.8522 38.7481 14.3315 35.2393 14.3315 30.9008C14.3315 26.5622 17.8403 23.0534 22.1789 23.0534C26.5175 23.0534 30.0263 26.5622 30.0263 30.9008C30.0263 32.3707 29.6114 33.7576 28.9002 34.9311L32.8239 38.1791C34.2463 36.1047 35.088 33.6035 35.088 30.9008C35.088 23.7765 29.3151 17.9917 22.1789 17.9917C15.0428 17.9917 9.26986 23.7646 9.26986 30.9008C9.26986 38.0369 15.0428 43.8098 22.1789 43.8098C24.3126 43.8098 26.3278 43.2882 28.1059 42.3636L40.446 48.2195L40.849 47.6742H40.8372Z" fill="white"/>
</g>
</g>
<path d="M82.698 21.2934C81.97 21.2934 81.2933 21.1674 80.668 20.9154C80.0427 20.6541 79.492 20.2947 79.016 19.8374C78.54 19.3707 78.1667 18.8341 77.896 18.2274C77.6347 17.6114 77.504 16.9487 77.504 16.2394C77.504 15.5301 77.6347 14.8721 77.896 14.2654C78.1667 13.6494 78.5353 13.1127 79.002 12.6554C79.4687 12.1887 80.0147 11.8294 80.64 11.5774C81.2747 11.3161 81.9513 11.1854 82.67 11.1854C83.482 11.1854 84.2473 11.3487 84.966 11.6754C85.6847 11.9927 86.2773 12.4407 86.744 13.0194L85.33 14.3214C84.994 13.9014 84.5973 13.5841 84.14 13.3694C83.6827 13.1547 83.1927 13.0474 82.67 13.0474C82.2313 13.0474 81.8253 13.1314 81.452 13.2994C81.0787 13.4581 80.752 13.6821 80.472 13.9714C80.192 14.2514 79.9727 14.5874 79.814 14.9794C79.6647 15.3621 79.59 15.7821 79.59 16.2394C79.59 16.6967 79.6693 17.1214 79.828 17.5134C79.9867 17.9054 80.206 18.2461 80.486 18.5354C80.7753 18.8154 81.1067 19.0394 81.48 19.2074C81.8627 19.3661 82.278 19.4454 82.726 19.4454C83.1927 19.4454 83.6127 19.3614 83.986 19.1934C84.3593 19.0161 84.672 18.7734 84.924 18.4654C85.1853 18.1481 85.358 17.7934 85.442 17.4014H82.544V15.6374H87.612V16.2534C87.612 16.9814 87.486 17.6534 87.234 18.2694C86.9913 18.8761 86.6507 19.4081 86.212 19.8654C85.7733 20.3134 85.2553 20.6634 84.658 20.9154C84.0607 21.1674 83.4073 21.2934 82.698 21.2934ZM88.9972 21.1394V11.3394H91.0272V19.3474H96.3892V21.1394H88.9972ZM101.879 21.2934C101.151 21.2934 100.475 21.1674 99.8493 20.9154C99.224 20.6541 98.6733 20.2947 98.1973 19.8374C97.7306 19.3707 97.362 18.8341 97.0913 18.2274C96.83 17.6114 96.6993 16.9487 96.6993 16.2394C96.6993 15.5301 96.83 14.8721 97.0913 14.2654C97.362 13.6494 97.7306 13.1127 98.1973 12.6554C98.6733 12.1887 99.224 11.8294 99.8493 11.5774C100.475 11.3161 101.151 11.1854 101.879 11.1854C102.607 11.1854 103.284 11.3161 103.909 11.5774C104.544 11.8294 105.095 12.1887 105.561 12.6554C106.037 13.1127 106.406 13.6494 106.667 14.2654C106.929 14.8721 107.059 15.5301 107.059 16.2394C107.059 16.9487 106.929 17.6114 106.667 18.2274C106.406 18.8341 106.037 19.3707 105.561 19.8374C105.095 20.2947 104.544 20.6541 103.909 20.9154C103.284 21.1674 102.607 21.2934 101.879 21.2934ZM101.879 19.4314C102.327 19.4314 102.738 19.3521 103.111 19.1934C103.485 19.0254 103.811 18.8014 104.091 18.5214C104.371 18.2321 104.591 17.8914 104.749 17.4994C104.908 17.1074 104.987 16.6874 104.987 16.2394C104.987 15.7821 104.908 15.3621 104.749 14.9794C104.591 14.5874 104.371 14.2514 104.091 13.9714C103.811 13.6821 103.485 13.4581 103.111 13.2994C102.738 13.1314 102.327 13.0474 101.879 13.0474C101.441 13.0474 101.035 13.1314 100.661 13.2994C100.288 13.4581 99.9613 13.6821 99.6813 13.9714C99.4013 14.2514 99.182 14.5874 99.0233 14.9794C98.8646 15.3621 98.7853 15.7774 98.7853 16.2254C98.7853 16.6827 98.8646 17.1074 99.0233 17.4994C99.182 17.8914 99.4013 18.2321 99.6813 18.5214C99.9613 18.8014 100.288 19.0254 100.661 19.1934C101.035 19.3521 101.441 19.4314 101.879 19.4314ZM108.466 21.1394V11.3394H113.072C113.735 11.3394 114.313 11.4514 114.808 11.6754C115.303 11.8994 115.69 12.2167 115.97 12.6274C116.25 13.0287 116.39 13.4954 116.39 14.0274C116.39 14.4567 116.278 14.8534 116.054 15.2174C115.839 15.5721 115.545 15.8614 115.172 16.0854C115.648 16.3094 116.026 16.6127 116.306 16.9954C116.586 17.3781 116.726 17.8121 116.726 18.2974C116.726 18.8574 116.581 19.3521 116.292 19.7814C116.012 20.2107 115.611 20.5467 115.088 20.7894C114.575 21.0227 113.977 21.1394 113.296 21.1394H108.466ZM110.496 15.3434H112.946C113.385 15.3434 113.73 15.2407 113.982 15.0354C114.243 14.8207 114.374 14.5361 114.374 14.1814C114.374 13.8267 114.243 13.5467 113.982 13.3414C113.73 13.1267 113.385 13.0194 112.946 13.0194H110.496V15.3434ZM110.496 19.4594H113.142C113.609 19.4594 113.982 19.3474 114.262 19.1234C114.542 18.8901 114.682 18.5821 114.682 18.1994C114.682 17.8074 114.542 17.4994 114.262 17.2754C113.982 17.0421 113.609 16.9254 113.142 16.9254H110.496V19.4594ZM117.016 21.1394L121.048 11.3394H123.386L127.376 21.1394H125.178L124.184 18.5634H120.138L119.13 21.1394H117.016ZM120.768 16.9394H123.568L122.168 13.3274L120.768 16.9394ZM128.208 21.1394V11.3394H130.238V19.3474H135.6V21.1394H128.208ZM77.882 37.1394V27.3394H85.414V29.1034H79.912V31.3434H83.538V33.0514H79.912V35.3754H85.47V37.1394H77.882ZM88.9354 35.3334H90.6434C91.0821 35.3334 91.4881 35.2587 91.8614 35.1094C92.2441 34.9507 92.5754 34.7314 92.8554 34.4514C93.1448 34.1714 93.3641 33.8447 93.5134 33.4714C93.6721 33.0981 93.7514 32.6921 93.7514 32.2534C93.7514 31.8147 93.6721 31.4087 93.5134 31.0354C93.3548 30.6527 93.1354 30.3214 92.8554 30.0414C92.5754 29.7614 92.2441 29.5421 91.8614 29.3834C91.4881 29.2247 91.0821 29.1454 90.6434 29.1454H88.9354V35.3334ZM86.9054 37.1394V27.3394H90.6714C91.4088 27.3394 92.0901 27.4654 92.7154 27.7174C93.3408 27.9601 93.8868 28.3054 94.3534 28.7534C94.8201 29.2014 95.1841 29.7241 95.4454 30.3214C95.7161 30.9187 95.8514 31.5627 95.8514 32.2534C95.8514 32.9534 95.7208 33.5974 95.4594 34.1854C95.1981 34.7734 94.8294 35.2914 94.3534 35.7394C93.8868 36.1781 93.3408 36.5234 92.7154 36.7754C92.0901 37.0181 91.4088 37.1394 90.6714 37.1394H86.9054ZM101.427 37.2794C100.541 37.2794 99.7707 37.1021 99.1174 36.7474C98.4734 36.3927 97.974 35.8887 97.6194 35.2354C97.2647 34.5727 97.0874 33.7981 97.0874 32.9114V27.3394H99.1174V32.9114C99.1174 33.4154 99.2107 33.8587 99.3974 34.2414C99.5934 34.6147 99.864 34.9041 100.209 35.1094C100.564 35.3054 100.975 35.4034 101.441 35.4034C101.908 35.4034 102.314 35.3054 102.659 35.1094C103.005 34.9041 103.271 34.6147 103.457 34.2414C103.653 33.8587 103.751 33.4154 103.751 32.9114V27.3394H105.767V32.9114C105.767 33.7887 105.59 34.5587 105.235 35.2214C104.881 35.8747 104.377 36.3834 103.723 36.7474C103.079 37.1021 102.314 37.2794 101.427 37.2794ZM112.216 37.2794C111.488 37.2794 110.807 37.1534 110.172 36.9014C109.537 36.6401 108.982 36.2807 108.506 35.8234C108.039 35.3661 107.671 34.8341 107.4 34.2274C107.139 33.6114 107.008 32.9487 107.008 32.2394C107.008 31.5207 107.139 30.8581 107.4 30.2514C107.671 29.6354 108.044 29.0987 108.52 28.6414C108.996 28.1841 109.547 27.8294 110.172 27.5774C110.807 27.3161 111.488 27.1854 112.216 27.1854C112.757 27.1854 113.28 27.2601 113.784 27.4094C114.288 27.5587 114.755 27.7687 115.184 28.0394C115.623 28.3101 115.996 28.6367 116.304 29.0194L114.932 30.3774C114.577 29.9387 114.167 29.6074 113.7 29.3834C113.243 29.1594 112.748 29.0474 112.216 29.0474C111.777 29.0474 111.367 29.1314 110.984 29.2994C110.601 29.4581 110.27 29.6821 109.99 29.9714C109.71 30.2514 109.491 30.5874 109.332 30.9794C109.173 31.3621 109.094 31.7821 109.094 32.2394C109.094 32.6874 109.173 33.1074 109.332 33.4994C109.491 33.8821 109.715 34.2181 110.004 34.5074C110.293 34.7874 110.629 35.0067 111.012 35.1654C111.404 35.3241 111.829 35.4034 112.286 35.4034C112.799 35.4034 113.28 35.2961 113.728 35.0814C114.176 34.8667 114.573 34.5587 114.918 34.1574L116.248 35.4734C115.94 35.8467 115.571 36.1687 115.142 36.4394C114.713 36.7101 114.246 36.9201 113.742 37.0694C113.247 37.2094 112.739 37.2794 112.216 37.2794ZM116.497 37.1394L120.529 27.3394H122.867L126.857 37.1394H124.659L123.665 34.5634H119.619L118.611 37.1394H116.497ZM120.249 32.9394H123.049L121.649 29.3274L120.249 32.9394ZM128.558 37.1394V29.1314H125.254V27.3394H133.878V29.1314H130.588V37.1394H128.558ZM135.017 37.1394V27.3394H137.047V37.1394H135.017ZM143.633 37.2934C142.905 37.2934 142.229 37.1674 141.603 36.9154C140.978 36.6541 140.427 36.2947 139.951 35.8374C139.485 35.3707 139.116 34.8341 138.845 34.2274C138.584 33.6114 138.453 32.9487 138.453 32.2394C138.453 31.5301 138.584 30.8721 138.845 30.2654C139.116 29.6494 139.485 29.1127 139.951 28.6554C140.427 28.1887 140.978 27.8294 141.603 27.5774C142.229 27.3161 142.905 27.1854 143.633 27.1854C144.361 27.1854 145.038 27.3161 145.663 27.5774C146.298 27.8294 146.849 28.1887 147.315 28.6554C147.791 29.1127 148.16 29.6494 148.421 30.2654C148.683 30.8721 148.813 31.5301 148.813 32.2394C148.813 32.9487 148.683 33.6114 148.421 34.2274C148.16 34.8341 147.791 35.3707 147.315 35.8374C146.849 36.2947 146.298 36.6541 145.663 36.9154C145.038 37.1674 144.361 37.2934 143.633 37.2934ZM143.633 35.4314C144.081 35.4314 144.492 35.3521 144.865 35.1934C145.239 35.0254 145.565 34.8014 145.845 34.5214C146.125 34.2321 146.345 33.8914 146.503 33.4994C146.662 33.1074 146.741 32.6874 146.741 32.2394C146.741 31.7821 146.662 31.3621 146.503 30.9794C146.345 30.5874 146.125 30.2514 145.845 29.9714C145.565 29.6821 145.239 29.4581 144.865 29.2994C144.492 29.1314 144.081 29.0474 143.633 29.0474C143.195 29.0474 142.789 29.1314 142.415 29.2994C142.042 29.4581 141.715 29.6821 141.435 29.9714C141.155 30.2514 140.936 30.5874 140.777 30.9794C140.619 31.3621 140.539 31.7774 140.539 32.2254C140.539 32.6827 140.619 33.1074 140.777 33.4994C140.936 33.8914 141.155 34.2321 141.435 34.5214C141.715 34.8014 142.042 35.0254 142.415 35.1934C142.789 35.3521 143.195 35.4314 143.633 35.4314ZM150.22 37.1394V27.3394H152.152L157.024 33.6674V27.3394H158.928V37.1394H157.136L152.138 30.5874V37.1394H150.22ZM77.882 53.1394V43.3394H79.814L84.686 49.6674V43.3394H86.59V53.1394H84.798L79.8 46.5874V53.1394H77.882ZM88.3683 53.1394V43.3394H95.9003V45.1034H90.3983V47.3434H94.0243V49.0514H90.3983V51.3754H95.9563V53.1394H88.3683ZM98.9481 53.1394L96.7781 43.3394H98.8641L100.194 49.9754L102.098 43.3394H104.016L105.92 49.9614L107.25 43.3394H109.266L107.11 53.1394H104.968L103.036 46.3074L101.076 53.1394H98.9481ZM113.88 53.2794C113.087 53.2794 112.312 53.1347 111.556 52.8454C110.8 52.5467 110.128 52.1267 109.54 51.5854L110.702 50.1294C111.271 50.6334 111.817 50.9974 112.34 51.2214C112.872 51.4454 113.432 51.5574 114.02 51.5574C114.431 51.5574 114.785 51.5107 115.084 51.4174C115.383 51.3147 115.611 51.1701 115.77 50.9834C115.938 50.7967 116.022 50.5774 116.022 50.3254C116.022 49.9894 115.901 49.7327 115.658 49.5554C115.415 49.3687 115 49.2241 114.412 49.1214L112.466 48.7854C111.635 48.6454 111.001 48.3514 110.562 47.9034C110.133 47.4554 109.918 46.8767 109.918 46.1674C109.918 45.5607 110.072 45.0334 110.38 44.5854C110.697 44.1374 111.141 43.7967 111.71 43.5634C112.289 43.3207 112.975 43.1994 113.768 43.1994C114.487 43.1994 115.201 43.3207 115.91 43.5634C116.629 43.8061 117.263 44.1421 117.814 44.5714L116.722 46.0834C115.695 45.2994 114.664 44.9074 113.628 44.9074C113.264 44.9074 112.947 44.9541 112.676 45.0474C112.405 45.1407 112.195 45.2714 112.046 45.4394C111.906 45.5981 111.836 45.7894 111.836 46.0134C111.836 46.3121 111.943 46.5454 112.158 46.7134C112.373 46.8721 112.732 46.9934 113.236 47.0774L115.084 47.3854C116.064 47.5441 116.797 47.8567 117.282 48.3234C117.767 48.7807 118.01 49.3874 118.01 50.1434C118.01 50.7781 117.842 51.3334 117.506 51.8094C117.17 52.2761 116.689 52.6401 116.064 52.9014C115.448 53.1534 114.72 53.2794 113.88 53.2794Z" fill="#1D1D1B"/>
<defs>
<clipPath id="clip0_1548_9000">
<rect width="64" height="64" fill="white" transform="translate(0 0.139404)"/>
</clipPath>
<clipPath id="clip1_1548_9000">
<rect width="64" height="64" fill="white" transform="translate(0 0.139404)"/>
</clipPath>
</defs>
</svg>
