<svg width="14" height="14" viewBox="0 0 14 14" fill="none" xmlns="http://www.w3.org/2000/svg">
<path fill-rule="evenodd" clip-rule="evenodd" d="M7.29755 5.131V6.12092C7.50485 5.80514 7.79059 5.54861 8.1268 5.37641C8.463 5.20422 8.83816 5.12227 9.21555 5.13858C11.231 5.13858 11.6667 6.39858 11.6667 8.03775V11.375H9.80005V8.41633C9.80005 7.7105 9.65771 6.80283 8.55871 6.80283C7.49296 6.80283 7.31096 7.57108 7.31096 8.36383V11.375H5.45013V5.131H7.29755ZM4.20005 3.56183C4.19982 3.74675 4.145 3.92749 4.04248 4.08138C3.93995 4.23527 3.79427 4.35548 3.62371 4.42692C3.45322 4.49778 3.2655 4.51632 3.08444 4.48017C2.90338 4.44402 2.73717 4.35482 2.60696 4.22392C2.47651 4.09293 2.3877 3.9263 2.35169 3.74498C2.31569 3.56366 2.3341 3.37574 2.40461 3.20485C2.47512 3.03396 2.59459 2.88774 2.74798 2.78456C2.90138 2.68139 3.08185 2.62588 3.26671 2.625C3.38958 2.625 3.51123 2.64926 3.62469 2.69638C3.73816 2.7435 3.84121 2.81256 3.92792 2.8996C4.01463 2.98664 4.08331 3.08995 4.13001 3.20359C4.17671 3.31723 4.20051 3.43897 4.20005 3.56183Z" fill="#1D1D1B"/>
<path d="M4.20004 5.13867H2.33337V11.3751H4.20004V5.13867Z" fill="#1D1D1B"/>
</svg>
