<svg width="160" height="64" viewBox="0 0 160 64" fill="none" xmlns="http://www.w3.org/2000/svg">
<g clip-path="url(#clip0_4503_234)">
<path d="M46.4916 28.2483C42.1767 27.1458 41.1098 26.6124 41.1098 24.9647V24.8936C41.1098 23.6845 42.2123 22.7243 44.3223 22.7243C46.4323 22.7243 48.6016 23.6489 50.8064 25.1899L53.6633 21.0529C51.1265 19.0258 48.0326 17.876 44.3934 17.876C39.2962 17.876 35.657 20.8751 35.657 25.4033V25.4744C35.657 30.4294 38.905 31.8163 43.9311 33.1084C48.1037 34.1753 48.9572 34.8865 48.9572 36.2853V36.3564C48.9572 37.8145 47.6059 38.7154 45.3536 38.7154C42.4968 38.7154 40.1022 37.6011 37.8974 35.6808C37.8618 35.6452 37.8263 35.6215 37.7907 35.5859C37.7433 35.5504 37.4469 35.2777 37.198 35.0406C37.198 35.0288 37.1861 35.0169 37.1861 35.0169C37.0558 34.8984 36.9609 34.7798 36.9254 34.7206C36.4631 36.4868 35.6807 38.1108 34.6612 39.557C34.8628 39.7348 35.0761 39.9127 35.2895 40.0786L35.3132 40.1023C38.1937 42.402 41.7381 43.54 45.2469 43.54C50.6286 43.54 54.4101 40.7543 54.4101 35.7993V35.7282C54.4101 31.3777 51.5533 29.5641 46.4916 28.2364V28.2483Z" fill="#1D1D1B"/>
<path d="M40.8372 47.5348L27.3828 36.6172C25.9959 37.8501 24.1704 38.6087 22.1789 38.6087C17.8522 38.6087 14.3315 35.0999 14.3315 30.7614C14.3315 26.4228 17.8403 22.914 22.1789 22.914C26.5175 22.914 30.0263 26.4228 30.0263 30.7614C30.0263 32.2313 29.6114 33.6182 28.9002 34.7917L32.8239 38.0397C34.2463 35.9653 35.088 33.4641 35.088 30.7614C35.088 23.6371 29.3151 17.8523 22.1789 17.8523C15.0428 17.8523 9.26986 23.6252 9.26986 30.7614C9.26986 37.8975 15.0428 43.6704 22.1789 43.6704C24.3126 43.6704 26.3278 43.1488 28.1059 42.2242L40.446 48.0801L40.849 47.5348H40.8372Z" fill="#1D1D1B"/>
<g clip-path="url(#clip1_4503_234)">
<path d="M64 0H0V64H64V0Z" fill="#F7A70F"/>
<path d="M46.4916 28.2483C42.1767 27.1458 41.1098 26.6124 41.1098 24.9647V24.8936C41.1098 23.6845 42.2123 22.7243 44.3223 22.7243C46.4323 22.7243 48.6016 23.6489 50.8065 25.1899L53.6633 21.0529C51.1265 19.0258 48.0326 17.876 44.3934 17.876C39.2962 17.876 35.657 20.8751 35.657 25.4033V25.4744C35.657 30.4294 38.905 31.8163 43.9311 33.1084C48.1037 34.1753 48.9572 34.8865 48.9572 36.2853V36.3564C48.9572 37.8145 47.6059 38.7154 45.3536 38.7154C42.4968 38.7154 40.1022 37.6011 37.8974 35.6808C37.8618 35.6452 37.8263 35.6215 37.7907 35.5859C37.7433 35.5504 37.4469 35.2777 37.198 35.0406C37.198 35.0288 37.1861 35.0169 37.1861 35.0169C37.0558 34.8984 36.9609 34.7798 36.9254 34.7206C36.4631 36.4868 35.6807 38.1108 34.6612 39.557C34.8628 39.7348 35.0761 39.9127 35.2895 40.0786L35.3132 40.1023C38.1937 42.402 41.7381 43.54 45.2469 43.54C50.6286 43.54 54.4101 40.7543 54.4101 35.7993V35.7282C54.4101 31.3777 51.5533 29.5641 46.4916 28.2364V28.2483Z" fill="white"/>
<path d="M40.8372 47.5348L27.3828 36.6172C25.9959 37.8501 24.1704 38.6087 22.1789 38.6087C17.8522 38.6087 14.3315 35.0999 14.3315 30.7614C14.3315 26.4228 17.8403 22.914 22.1789 22.914C26.5175 22.914 30.0263 26.4228 30.0263 30.7614C30.0263 32.2313 29.6114 33.6182 28.9002 34.7917L32.8239 38.0397C34.2463 35.9653 35.088 33.4641 35.088 30.7614C35.088 23.6371 29.3151 17.8523 22.1789 17.8523C15.0428 17.8523 9.26986 23.6252 9.26986 30.7614C9.26986 37.8975 15.0428 43.6704 22.1789 43.6704C24.3126 43.6704 26.3278 43.1488 28.1059 42.2242L40.446 48.0801L40.849 47.5348H40.8372Z" fill="white"/>
</g>
</g>
<path d="M82.698 21.154C81.97 21.154 81.2933 21.028 80.668 20.776C80.0427 20.5147 79.492 20.1553 79.016 19.698C78.54 19.2313 78.1667 18.6947 77.896 18.088C77.6347 17.472 77.504 16.8093 77.504 16.1C77.504 15.3907 77.6347 14.7327 77.896 14.126C78.1667 13.51 78.5353 12.9733 79.002 12.516C79.4687 12.0493 80.0147 11.69 80.64 11.438C81.2747 11.1767 81.9513 11.046 82.67 11.046C83.482 11.046 84.2473 11.2093 84.966 11.536C85.6847 11.8533 86.2773 12.3013 86.744 12.88L85.33 14.182C84.994 13.762 84.5973 13.4447 84.14 13.23C83.6827 13.0153 83.1927 12.908 82.67 12.908C82.2313 12.908 81.8253 12.992 81.452 13.16C81.0787 13.3187 80.752 13.5427 80.472 13.832C80.192 14.112 79.9727 14.448 79.814 14.84C79.6647 15.2227 79.59 15.6427 79.59 16.1C79.59 16.5573 79.6693 16.982 79.828 17.374C79.9867 17.766 80.206 18.1067 80.486 18.396C80.7753 18.676 81.1067 18.9 81.48 19.068C81.8627 19.2267 82.278 19.306 82.726 19.306C83.1927 19.306 83.6127 19.222 83.986 19.054C84.3593 18.8767 84.672 18.634 84.924 18.326C85.1853 18.0087 85.358 17.654 85.442 17.262H82.544V15.498H87.612V16.114C87.612 16.842 87.486 17.514 87.234 18.13C86.9913 18.7367 86.6507 19.2687 86.212 19.726C85.7733 20.174 85.2553 20.524 84.658 20.776C84.0607 21.028 83.4073 21.154 82.698 21.154ZM88.9972 21V11.2H91.0272V19.208H96.3892V21H88.9972ZM101.879 21.154C101.151 21.154 100.475 21.028 99.8493 20.776C99.224 20.5147 98.6733 20.1553 98.1973 19.698C97.7306 19.2313 97.362 18.6947 97.0913 18.088C96.83 17.472 96.6993 16.8093 96.6993 16.1C96.6993 15.3907 96.83 14.7327 97.0913 14.126C97.362 13.51 97.7306 12.9733 98.1973 12.516C98.6733 12.0493 99.224 11.69 99.8493 11.438C100.475 11.1767 101.151 11.046 101.879 11.046C102.607 11.046 103.284 11.1767 103.909 11.438C104.544 11.69 105.095 12.0493 105.561 12.516C106.037 12.9733 106.406 13.51 106.667 14.126C106.929 14.7327 107.059 15.3907 107.059 16.1C107.059 16.8093 106.929 17.472 106.667 18.088C106.406 18.6947 106.037 19.2313 105.561 19.698C105.095 20.1553 104.544 20.5147 103.909 20.776C103.284 21.028 102.607 21.154 101.879 21.154ZM101.879 19.292C102.327 19.292 102.738 19.2127 103.111 19.054C103.485 18.886 103.811 18.662 104.091 18.382C104.371 18.0927 104.591 17.752 104.749 17.36C104.908 16.968 104.987 16.548 104.987 16.1C104.987 15.6427 104.908 15.2227 104.749 14.84C104.591 14.448 104.371 14.112 104.091 13.832C103.811 13.5427 103.485 13.3187 103.111 13.16C102.738 12.992 102.327 12.908 101.879 12.908C101.441 12.908 101.035 12.992 100.661 13.16C100.288 13.3187 99.9613 13.5427 99.6813 13.832C99.4013 14.112 99.182 14.448 99.0233 14.84C98.8646 15.2227 98.7853 15.638 98.7853 16.086C98.7853 16.5433 98.8646 16.968 99.0233 17.36C99.182 17.752 99.4013 18.0927 99.6813 18.382C99.9613 18.662 100.288 18.886 100.661 19.054C101.035 19.2127 101.441 19.292 101.879 19.292ZM108.466 21V11.2H113.072C113.735 11.2 114.313 11.312 114.808 11.536C115.303 11.76 115.69 12.0773 115.97 12.488C116.25 12.8893 116.39 13.356 116.39 13.888C116.39 14.3173 116.278 14.714 116.054 15.078C115.839 15.4327 115.545 15.722 115.172 15.946C115.648 16.17 116.026 16.4733 116.306 16.856C116.586 17.2387 116.726 17.6727 116.726 18.158C116.726 18.718 116.581 19.2127 116.292 19.642C116.012 20.0713 115.611 20.4073 115.088 20.65C114.575 20.8833 113.977 21 113.296 21H108.466ZM110.496 15.204H112.946C113.385 15.204 113.73 15.1013 113.982 14.896C114.243 14.6813 114.374 14.3967 114.374 14.042C114.374 13.6873 114.243 13.4073 113.982 13.202C113.73 12.9873 113.385 12.88 112.946 12.88H110.496V15.204ZM110.496 19.32H113.142C113.609 19.32 113.982 19.208 114.262 18.984C114.542 18.7507 114.682 18.4427 114.682 18.06C114.682 17.668 114.542 17.36 114.262 17.136C113.982 16.9027 113.609 16.786 113.142 16.786H110.496V19.32ZM117.016 21L121.048 11.2H123.386L127.376 21H125.178L124.184 18.424H120.138L119.13 21H117.016ZM120.768 16.8H123.568L122.168 13.188L120.768 16.8ZM128.208 21V11.2H130.238V19.208H135.6V21H128.208ZM77.882 37V27.2H85.414V28.964H79.912V31.204H83.538V32.912H79.912V35.236H85.47V37H77.882ZM88.9354 35.194H90.6434C91.0821 35.194 91.4881 35.1193 91.8614 34.97C92.2441 34.8113 92.5754 34.592 92.8554 34.312C93.1448 34.032 93.3641 33.7053 93.5134 33.332C93.6721 32.9587 93.7514 32.5527 93.7514 32.114C93.7514 31.6753 93.6721 31.2693 93.5134 30.896C93.3548 30.5133 93.1354 30.182 92.8554 29.902C92.5754 29.622 92.2441 29.4027 91.8614 29.244C91.4881 29.0853 91.0821 29.006 90.6434 29.006H88.9354V35.194ZM86.9054 37V27.2H90.6714C91.4088 27.2 92.0901 27.326 92.7154 27.578C93.3408 27.8207 93.8868 28.166 94.3534 28.614C94.8201 29.062 95.1841 29.5847 95.4454 30.182C95.7161 30.7793 95.8514 31.4233 95.8514 32.114C95.8514 32.814 95.7208 33.458 95.4594 34.046C95.1981 34.634 94.8294 35.152 94.3534 35.6C93.8868 36.0387 93.3408 36.384 92.7154 36.636C92.0901 36.8787 91.4088 37 90.6714 37H86.9054ZM101.427 37.14C100.541 37.14 99.7707 36.9627 99.1174 36.608C98.4734 36.2533 97.974 35.7493 97.6194 35.096C97.2647 34.4333 97.0874 33.6587 97.0874 32.772V27.2H99.1174V32.772C99.1174 33.276 99.2107 33.7193 99.3974 34.102C99.5934 34.4753 99.864 34.7647 100.209 34.97C100.564 35.166 100.975 35.264 101.441 35.264C101.908 35.264 102.314 35.166 102.659 34.97C103.005 34.7647 103.271 34.4753 103.457 34.102C103.653 33.7193 103.751 33.276 103.751 32.772V27.2H105.767V32.772C105.767 33.6493 105.59 34.4193 105.235 35.082C104.881 35.7353 104.377 36.244 103.723 36.608C103.079 36.9627 102.314 37.14 101.427 37.14ZM112.216 37.14C111.488 37.14 110.807 37.014 110.172 36.762C109.537 36.5007 108.982 36.1413 108.506 35.684C108.039 35.2267 107.671 34.6947 107.4 34.088C107.139 33.472 107.008 32.8093 107.008 32.1C107.008 31.3813 107.139 30.7187 107.4 30.112C107.671 29.496 108.044 28.9593 108.52 28.502C108.996 28.0447 109.547 27.69 110.172 27.438C110.807 27.1767 111.488 27.046 112.216 27.046C112.757 27.046 113.28 27.1207 113.784 27.27C114.288 27.4193 114.755 27.6293 115.184 27.9C115.623 28.1707 115.996 28.4973 116.304 28.88L114.932 30.238C114.577 29.7993 114.167 29.468 113.7 29.244C113.243 29.02 112.748 28.908 112.216 28.908C111.777 28.908 111.367 28.992 110.984 29.16C110.601 29.3187 110.27 29.5427 109.99 29.832C109.71 30.112 109.491 30.448 109.332 30.84C109.173 31.2227 109.094 31.6427 109.094 32.1C109.094 32.548 109.173 32.968 109.332 33.36C109.491 33.7427 109.715 34.0787 110.004 34.368C110.293 34.648 110.629 34.8673 111.012 35.026C111.404 35.1847 111.829 35.264 112.286 35.264C112.799 35.264 113.28 35.1567 113.728 34.942C114.176 34.7273 114.573 34.4193 114.918 34.018L116.248 35.334C115.94 35.7073 115.571 36.0293 115.142 36.3C114.713 36.5707 114.246 36.7807 113.742 36.93C113.247 37.07 112.739 37.14 112.216 37.14ZM116.497 37L120.529 27.2H122.867L126.857 37H124.659L123.665 34.424H119.619L118.611 37H116.497ZM120.249 32.8H123.049L121.649 29.188L120.249 32.8ZM128.572 37V28.992H125.268V27.2H133.892V28.992H130.602V37H128.572ZM135.03 37V27.2H137.06V37H135.03ZM143.647 37.154C142.919 37.154 142.242 37.028 141.617 36.776C140.992 36.5147 140.441 36.1553 139.965 35.698C139.498 35.2313 139.13 34.6947 138.859 34.088C138.598 33.472 138.467 32.8093 138.467 32.1C138.467 31.3907 138.598 30.7327 138.859 30.126C139.13 29.51 139.498 28.9733 139.965 28.516C140.441 28.0493 140.992 27.69 141.617 27.438C142.242 27.1767 142.919 27.046 143.647 27.046C144.375 27.046 145.052 27.1767 145.677 27.438C146.312 27.69 146.862 28.0493 147.329 28.516C147.805 28.9733 148.174 29.51 148.435 30.126C148.696 30.7327 148.827 31.3907 148.827 32.1C148.827 32.8093 148.696 33.472 148.435 34.088C148.174 34.6947 147.805 35.2313 147.329 35.698C146.862 36.1553 146.312 36.5147 145.677 36.776C145.052 37.028 144.375 37.154 143.647 37.154ZM143.647 35.292C144.095 35.292 144.506 35.2127 144.879 35.054C145.252 34.886 145.579 34.662 145.859 34.382C146.139 34.0927 146.358 33.752 146.517 33.36C146.676 32.968 146.755 32.548 146.755 32.1C146.755 31.6427 146.676 31.2227 146.517 30.84C146.358 30.448 146.139 30.112 145.859 29.832C145.579 29.5427 145.252 29.3187 144.879 29.16C144.506 28.992 144.095 28.908 143.647 28.908C143.208 28.908 142.802 28.992 142.429 29.16C142.056 29.3187 141.729 29.5427 141.449 29.832C141.169 30.112 140.95 30.448 140.791 30.84C140.632 31.2227 140.553 31.638 140.553 32.086C140.553 32.5433 140.632 32.968 140.791 33.36C140.95 33.752 141.169 34.0927 141.449 34.382C141.729 34.662 142.056 34.886 142.429 35.054C142.802 35.2127 143.208 35.292 143.647 35.292ZM150.234 37V27.2H152.166L157.038 33.528V27.2H158.942V37H157.15L152.152 30.448V37H150.234ZM77.882 53V43.2H79.814L84.686 49.528V43.2H86.59V53H84.798L79.8 46.448V53H77.882ZM88.3683 53V43.2H95.9003V44.964H90.3983V47.204H94.0243V48.912H90.3983V51.236H95.9563V53H88.3683ZM98.9481 53L96.7781 43.2H98.8641L100.194 49.836L102.098 43.2H104.016L105.92 49.822L107.25 43.2H109.266L107.11 53H104.968L103.036 46.168L101.076 53H98.9481ZM113.88 53.14C113.087 53.14 112.312 52.9953 111.556 52.706C110.8 52.4073 110.128 51.9873 109.54 51.446L110.702 49.99C111.271 50.494 111.817 50.858 112.34 51.082C112.872 51.306 113.432 51.418 114.02 51.418C114.431 51.418 114.785 51.3713 115.084 51.278C115.383 51.1753 115.611 51.0307 115.77 50.844C115.938 50.6573 116.022 50.438 116.022 50.186C116.022 49.85 115.901 49.5933 115.658 49.416C115.415 49.2293 115 49.0847 114.412 48.982L112.466 48.646C111.635 48.506 111.001 48.212 110.562 47.764C110.133 47.316 109.918 46.7373 109.918 46.028C109.918 45.4213 110.072 44.894 110.38 44.446C110.697 43.998 111.141 43.6573 111.71 43.424C112.289 43.1813 112.975 43.06 113.768 43.06C114.487 43.06 115.201 43.1813 115.91 43.424C116.629 43.6667 117.263 44.0027 117.814 44.432L116.722 45.944C115.695 45.16 114.664 44.768 113.628 44.768C113.264 44.768 112.947 44.8147 112.676 44.908C112.405 45.0013 112.195 45.132 112.046 45.3C111.906 45.4587 111.836 45.65 111.836 45.874C111.836 46.1727 111.943 46.406 112.158 46.574C112.373 46.7327 112.732 46.854 113.236 46.938L115.084 47.246C116.064 47.4047 116.797 47.7173 117.282 48.184C117.767 48.6413 118.01 49.248 118.01 50.004C118.01 50.6387 117.842 51.194 117.506 51.67C117.17 52.1367 116.689 52.5007 116.064 52.762C115.448 53.014 114.72 53.14 113.88 53.14Z" fill="#1D1D1B"/>
<defs>
<clipPath id="clip0_4503_234">
<rect width="64" height="64" fill="white"/>
</clipPath>
<clipPath id="clip1_4503_234">
<rect width="64" height="64" fill="white"/>
</clipPath>
</defs>
</svg>
