<svg width="15" height="15" viewBox="0 0 15 15" fill="none" xmlns="http://www.w3.org/2000/svg">
<path d="M12.2938 5.08745C12.2382 4.87325 12.1267 4.67764 11.9708 4.52062C11.8149 4.3636 11.6201 4.25078 11.4063 4.1937C10.1101 4.04004 8.8052 3.97114 7.50002 3.98745C6.19483 3.97114 4.88998 4.04004 3.59377 4.1937C3.37996 4.25078 3.18515 4.3636 3.02922 4.52062C2.87329 4.67764 2.76185 4.87325 2.70627 5.08745C2.56438 5.88368 2.49534 6.69119 2.50002 7.49995C2.49493 8.31287 2.56396 9.12456 2.70627 9.92495C2.76473 10.1357 2.87745 10.3274 3.03319 10.4809C3.18893 10.6345 3.38222 10.7445 3.59377 10.7999C4.88998 10.9536 6.19483 11.0225 7.50002 11.0062C8.8052 11.0225 10.1101 10.9536 11.4063 10.7999C11.6178 10.7445 11.8111 10.6345 11.9668 10.4809C12.1226 10.3274 12.2353 10.1357 12.2938 9.92495C12.4361 9.12456 12.5051 8.31287 12.5 7.49995C12.5047 6.69119 12.4357 5.88368 12.2938 5.08745ZM6.47502 8.9937V6.0187L9.09377 7.49995L6.47502 8.98745V8.9937Z" fill="black"/>
</svg>
